<?xml version="1.0" encoding="UTF-8"?>
<svg width="194px" height="42px" viewBox="0 0 194 42" version="1.1" xmlns="http://www.w3.org/2000/svg" xmlns:xlink="http://www.w3.org/1999/xlink">
    <!-- Generator: Sketch 64 (93537) - https://sketch.com -->
    <title>Group 6</title>
    <desc>Created with Sketch.</desc>
    <g id="Page-1" stroke="none" stroke-width="1" fill="none" fill-rule="evenodd">
        <g id="Group-6" transform="translate(0.000000, 0.000000)">
            <path d="M10.456,22.5747285 C10.185,23.1727285 9.793,23.6917285 9.281,24.1327285 C8.77,24.5737285 8.149,24.9247285 7.42,25.1797285 C6.691,25.4347285 5.862,25.5627285 4.93,25.5627285 C4.078,25.5627285 3.225,25.4697285 2.372,25.2837285 C1.519,25.0977285 0.728,24.8267285 0,24.4697285 L0.767,21.5627285 C1.31,21.8267285 1.922,22.0557285 2.605,22.2487285 C3.287,22.4427285 4.024,22.5407285 4.815,22.5407285 C5.466,22.5407285 6.002,22.4197285 6.42,22.1787285 C6.839,21.9387285 7.048,21.5477285 7.048,21.0047285 C7.048,20.6167285 6.866,20.2637285 6.501,19.9467285 C6.137,19.6287285 5.474,19.2907285 4.512,18.9337285 C2.992,18.3607285 1.883,17.7047285 1.185,16.9677285 C0.488,16.2317285 0.139,15.2907285 0.139,14.1417285 C0.139,12.6377285 0.632,11.4887285 1.616,10.6987285 C2.6,9.90672853 3.961,9.51172853 5.698,9.51172853 C6.583,9.51172853 7.427,9.60872853 8.235,9.80372853 C9.04,9.99772853 9.723,10.2487285 10.281,10.5587285 L9.63,13.4207285 C9.087,13.1567285 8.494,12.9427285 7.85,12.7807285 C7.207,12.6177285 6.544,12.5357285 5.862,12.5357285 C5.288,12.5357285 4.827,12.6337285 4.477,12.8277285 C4.129,13.0207285 3.954,13.3497285 3.954,13.8167285 C3.954,14.0327285 3.985,14.2187285 4.047,14.3747285 C4.109,14.5287285 4.222,14.6757285 4.384,14.8167285 C4.548,14.9547285 4.776,15.0957285 5.071,15.2337285 C5.365,15.3747285 5.738,15.5367285 6.188,15.7227285 C6.839,15.9867285 7.451,16.2657285 8.026,16.5607285 C8.599,16.8547285 9.095,17.1967285 9.514,17.5837285 C9.933,17.9727285 10.261,18.4147285 10.503,18.9097285 C10.743,19.4077285 10.863,19.9877285 10.863,20.6557285 C10.863,21.3377285 10.727,21.9777285 10.456,22.5747285 Z" id="Fill-4" fill="#FFFFFF"></path>
            <path d="M19.8654,19.2583285 L23.8434,19.2583285 L21.8654,12.7223285 L19.8654,19.2583285 Z M24.8204,22.2823285 L18.8884,22.2823285 L17.9344,25.2833285 L14.0034,25.2833285 L19.7724,9.79032853 L23.9604,9.79032853 L29.7294,25.2833285 L25.7984,25.2833285 L24.8204,22.2823285 Z" id="Fill-6" fill="#FFFFFF"></path>
            <polygon id="Fill-8" fill="#FFFFFF" points="44.2219 22.8193285 40.5459 22.8193285 37.5209 16.6083285 37.0559 25.2833285 33.3109 25.2833285 34.4739 9.79032853 37.9169 9.79032853 42.3839 19.2583285 46.8489 9.79032853 50.2929 9.79032853 51.4559 25.2833285 47.7109 25.2833285 47.2449 16.6083285"></polygon>
            <polygon id="Fill-10" fill="#FFFFFF" points="56.2717 9.79052853 65.9257 9.79052853 65.9257 12.8155285 60.0857 12.8155285 60.0857 15.9335285 65.6467 15.9335285 65.6467 18.9575285 60.0857 18.9575285 60.0857 22.2595285 65.9947 22.2595285 65.9947 25.2835285 56.2717 25.2835285"></polygon>
            <path d="M79.9743,22.2593285 C80.7493,22.2593285 81.4553,22.1513285 82.0913,21.9343285 C82.7273,21.7183285 83.2733,21.4063285 83.7313,21.0043285 C84.1883,20.6023285 84.5413,20.1083285 84.7893,19.5263285 C85.0373,18.9453285 85.1623,18.2823285 85.1623,17.5383285 C85.1623,16.7943285 85.0373,16.1303285 84.7893,15.5503285 C84.5413,14.9673285 84.1883,14.4743285 83.7313,14.0723285 C83.2733,13.6673285 82.7273,13.3583285 82.0913,13.1423285 C81.4553,12.9233285 80.7493,12.8153285 79.9743,12.8153285 L78.8343,12.8153285 L78.8343,22.2593285 L79.9743,22.2593285 Z M75.0193,9.79032853 L79.7413,9.79032853 C81.1053,9.79032853 82.3583,9.98532853 83.4983,10.3723285 C84.6393,10.7593285 85.6113,11.2963285 86.4183,11.9783285 C87.2243,12.6613285 87.8523,13.4793285 88.3033,14.4313285 C88.7513,15.3853285 88.9763,16.4223285 88.9763,17.5383285 C88.9763,18.6553285 88.7513,19.6893285 88.3033,20.6433285 C87.8523,21.5973285 87.2243,22.4153285 86.4183,23.0983285 C85.6113,23.7803285 84.6393,24.3143285 83.4983,24.7013285 C82.3583,25.0913285 81.1053,25.2833285 79.7413,25.2833285 L75.0193,25.2833285 L75.0193,9.79032853 Z" id="Fill-12" fill="#FFFFFF"></path>
            <path d="M97.2815,19.2583285 L101.2595,19.2583285 L99.2815,12.7223285 L97.2815,19.2583285 Z M102.2365,22.2823285 L96.3045,22.2823285 L95.3505,25.2833285 L91.4195,25.2833285 L97.1885,9.79032853 L101.3765,9.79032853 L107.1455,25.2833285 L103.2145,25.2833285 L102.2365,22.2823285 Z" id="Fill-14" fill="#FFFFFF"></path>
            <path d="M106.2541,8.30472853 L105.6641,7.12472853 L111.8811,3.96272853 L113.7011,4.56972853 L106.2541,8.30472853 Z M129.1321,2.92872853 C128.9701,2.42672853 128.7281,1.97372853 128.4121,1.57772853 L127.0301,4.20572853 L124.7581,4.91672853 L124.0461,2.63772853 L125.4291,0.00972852824 C124.9281,-0.0232714718 124.4101,0.0257285282 123.9091,0.186728528 C121.7101,0.874728528 120.4811,3.21072853 121.1601,5.40972853 C121.3211,5.91972853 121.5721,6.37272853 121.8791,6.76072853 L116.8121,15.2587285 L111.8901,6.94672853 L115.9481,4.90872853 L115.3581,3.73672853 L111.7761,2.54872853 L110.1111,3.38872853 L109.5451,2.27372853 L109.0351,2.53172853 L107.1031,3.50172853 L106.5861,3.76072853 L107.1511,4.89272853 L103.9011,6.55072853 L105.3731,9.47672853 L105.6721,10.0677285 L108.9301,8.43372853 L115.0251,18.3947285 L115.0251,25.2837285 L118.5991,25.2837285 L118.5991,18.3947285 L124.8631,8.32872853 C125.3641,8.36172853 125.8821,8.31272853 126.3911,8.15872853 C128.5901,7.47172853 129.8191,5.12772853 129.1321,2.92872853 L129.1321,2.92872853 Z" id="Fill-16" fill="#FFB604"></path>
            <path d="M138.4543,14.8618285 C138.4543,13.4358285 137.4383,12.7218285 135.4073,12.7218285 L134.7323,12.7218285 L134.7323,17.1188285 L135.3603,17.1188285 C136.3693,17.1188285 137.1353,16.9178285 137.6633,16.5148285 C138.1903,16.1108285 138.4543,15.5608285 138.4543,14.8618285 M142.1303,14.8408285 C142.1303,15.6628285 141.9523,16.3978285 141.5953,17.0498285 C141.2383,17.7008285 140.7453,18.2478285 140.1183,18.6898285 C139.4893,19.1308285 138.7483,19.4678285 137.8963,19.7018285 C137.0423,19.9328285 136.1203,20.0498285 135.1273,20.0498285 L134.7323,20.0498285 L134.7323,25.2838285 L130.9173,25.2838285 L130.9173,9.79082853 L135.3843,9.79082853 C136.3613,9.79082853 137.2643,9.89182853 138.0943,10.0928285 C138.9223,10.2948285 139.6373,10.6018285 140.2343,11.0128285 C140.8303,11.4238285 141.2963,11.9478285 141.6293,12.5838285 C141.9623,13.2198285 142.1303,13.9708285 142.1303,14.8408285" id="Fill-18" fill="#FFFFFF"></path>
            <path d="M154.2492,14.7690285 C154.2492,14.0720285 153.9782,13.5570285 153.4352,13.2220285 C152.8932,12.8890285 152.1322,12.7220285 151.1552,12.7220285 L150.0622,12.7220285 L150.0622,17.0730285 L150.9932,17.0730285 C152.0172,17.0730285 152.8152,16.8720285 153.3882,16.4670285 C153.9622,16.0650285 154.2492,15.4980285 154.2492,14.7690285 M157.9252,14.7000285 C157.9252,15.7380285 157.6342,16.6470285 157.0522,17.4210285 C156.4712,18.1980285 155.6602,18.7870285 154.6212,19.1890285 L159.7162,25.2840285 L155.0172,25.2840285 L150.7602,19.9120285 L150.0622,19.9120285 L150.0622,25.2840285 L146.2472,25.2840285 L146.2472,9.79002853 L151.1792,9.79002853 C152.1402,9.79002853 153.0322,9.89202853 153.8542,10.0930285 C154.6752,10.2950285 155.3892,10.5980285 155.9942,11.0020285 C156.5992,11.4050285 157.0722,11.9130285 157.4142,12.5250285 C157.7542,13.1380285 157.9252,13.8620285 157.9252,14.7000285" id="Fill-20" fill="#FFFFFF"></path>
            <path d="M170.4402,22.5405285 C171.1072,22.5405285 171.6972,22.4155285 172.2092,22.1655285 C172.7212,21.9195285 173.1512,21.5735285 173.5002,21.1315285 C173.8492,20.6905285 174.1082,20.1625285 174.2792,19.5505285 C174.4492,18.9375285 174.5352,18.2675285 174.5352,17.5385285 C174.5352,16.8095285 174.4492,16.1385285 174.2792,15.5265285 C174.1082,14.9145285 173.8492,14.3855285 173.5002,13.9445285 C173.1512,13.5005285 172.7212,13.1575285 172.2092,12.9085285 C171.6972,12.6615285 171.1072,12.5365285 170.4402,12.5365285 C169.7572,12.5365285 169.1652,12.6615285 168.6612,12.9085285 C168.1572,13.1575285 167.7312,13.5005285 167.3822,13.9445285 C167.0332,14.3855285 166.7732,14.9145285 166.6022,15.5265285 C166.4312,16.1385285 166.3472,16.8095285 166.3472,17.5385285 C166.3472,18.2675285 166.4312,18.9375285 166.6022,19.5505285 C166.7732,20.1625285 167.0332,20.6905285 167.3822,21.1315285 C167.7312,21.5735285 168.1572,21.9195285 168.6612,22.1655285 C169.1652,22.4155285 169.7572,22.5405285 170.4402,22.5405285 M178.3502,17.5385285 C178.3502,18.6395285 178.1712,19.6735285 177.8152,20.6435285 C177.4582,21.6125285 176.9432,22.4625285 176.2682,23.1915285 C175.5942,23.9205285 174.7672,24.4985285 173.7912,24.9245285 C172.8142,25.3515285 171.6972,25.5625285 170.4402,25.5625285 C169.1842,25.5625285 168.0642,25.3515285 167.0792,24.9245285 C166.0952,24.4985285 165.2652,23.9205285 164.5902,23.1915285 C163.9162,22.4625285 163.4042,21.6125285 163.0552,20.6435285 C162.7062,19.6735285 162.5312,18.6395285 162.5312,17.5385285 C162.5312,16.4365285 162.7062,15.4005285 163.0552,14.4315285 C163.4042,13.4645285 163.9162,12.6145285 164.5902,11.8845285 C165.2652,11.1555285 166.0952,10.5785285 167.0792,10.1515285 C168.0642,9.72552853 169.1842,9.51152853 170.4402,9.51152853 C171.6972,9.51152853 172.8142,9.72552853 173.7912,10.1515285 C174.7672,10.5785285 175.5942,11.1555285 176.2682,11.8845285 C176.9432,12.6145285 177.4582,13.4645285 177.8152,14.4315285 C178.1712,15.4005285 178.3502,16.4365285 178.3502,17.5385285" id="Fill-22" fill="#FFFFFF"></path>
            <path d="M193.1447,20.6557285 C193.1447,21.3377285 193.0087,21.9777285 192.7377,22.5747285 C192.4667,23.1727285 192.0747,23.6917285 191.5627,24.1327285 C191.0517,24.5737285 190.4307,24.9247285 189.7017,25.1797285 C188.9727,25.4347285 188.1437,25.5627285 187.2117,25.5627285 C186.3597,25.5627285 185.5057,25.4697285 184.6537,25.2837285 C183.8007,25.0977285 183.0097,24.8267285 182.2817,24.4697285 L183.0487,21.5627285 C183.5917,21.8267285 184.2037,22.0557285 184.8867,22.2487285 C185.5687,22.4427285 186.3057,22.5407285 187.0967,22.5407285 C187.7477,22.5407285 188.2837,22.4197285 188.7017,22.1787285 C189.1207,21.9387285 189.3297,21.5477285 189.3297,21.0047285 C189.3297,20.6167285 189.1477,20.2637285 188.7827,19.9467285 C188.4187,19.6287285 187.7547,19.2907285 186.7937,18.9337285 C185.2737,18.3607285 184.1647,17.7047285 183.4667,16.9677285 C182.7697,16.2317285 182.4207,15.2907285 182.4207,14.1417285 C182.4207,12.6377285 182.9137,11.4887285 183.8977,10.6987285 C184.8817,9.90672853 186.2427,9.51172853 187.9797,9.51172853 C188.8637,9.51172853 189.7087,9.60872853 190.5157,9.80372853 C191.3217,9.99772853 192.0047,10.2487285 192.5627,10.5587285 L191.9117,13.4207285 C191.3687,13.1567285 190.7757,12.9427285 190.1317,12.7807285 C189.4887,12.6177285 188.8257,12.5357285 188.1437,12.5357285 C187.5687,12.5357285 187.1087,12.6337285 186.7587,12.8277285 C186.4107,13.0207285 186.2357,13.3497285 186.2357,13.8167285 C186.2357,14.0327285 186.2667,14.2187285 186.3287,14.3747285 C186.3897,14.5287285 186.5037,14.6757285 186.6657,14.8167285 C186.8297,14.9547285 187.0577,15.0957285 187.3527,15.2337285 C187.6467,15.3747285 188.0197,15.5367285 188.4697,15.7227285 C189.1207,15.9867285 189.7327,16.2657285 190.3077,16.5607285 C190.8807,16.8547285 191.3767,17.1967285 191.7957,17.5837285 C192.2147,17.9727285 192.5427,18.4147285 192.7847,18.9097285 C193.0247,19.4077285 193.1447,19.9877285 193.1447,20.6557285" id="Fill-24" fill="#FFFFFF"></path>
            <line x1="97.6071" y1="36.4204285" x2="9.99999999e-05" y2="36.4204285" id="Stroke-26" stroke="#FFB604"></line>
            <path d="M103.9016,41.7119285 L103.9016,30.9769285 L105.2706,30.9769285 L105.2706,35.3399285 C105.5646,34.9859285 105.8936,34.7169285 106.2586,34.5339285 C106.6236,34.3519285 107.0496,34.2609285 107.5356,34.2609285 C107.9916,34.2609285 108.3826,34.3579285 108.7066,34.5499285 C109.0306,34.7419285 109.2996,35.0039285 109.5126,35.3329285 C109.7256,35.6629285 109.8806,36.0459285 109.9766,36.4809285 C110.0726,36.9169285 110.1206,37.3779285 110.1206,37.8649285 L110.1206,41.7119285 L108.7526,41.7119285 L108.7526,37.9109285 C108.7526,37.5359285 108.7216,37.1929285 108.6616,36.8839285 C108.6006,36.5749285 108.5036,36.3089285 108.3726,36.0859285 C108.2396,35.8629285 108.0686,35.6889285 107.8556,35.5609285 C107.6426,35.4349285 107.3836,35.3709285 107.0796,35.3709285 C106.6736,35.3709285 106.3166,35.4779285 106.0076,35.6909285 C105.6986,35.9039285 105.4526,36.1269285 105.2706,36.3599285 L105.2706,41.7119285 L103.9016,41.7119285 Z" id="Fill-28" fill="#FFB604"></path>
            <path d="M117.511,38.0620285 C117.511,37.6880285 117.466,37.3330285 117.374,36.9990285 C117.282,36.6630285 117.148,36.3730285 116.971,36.1250285 C116.794,35.8750285 116.568,35.6810285 116.295,35.5390285 C116.021,35.3960285 115.701,35.3260285 115.336,35.3260285 C114.971,35.3260285 114.652,35.3960285 114.379,35.5390285 C114.105,35.6810285 113.879,35.8750285 113.702,36.1250285 C113.525,36.3730285 113.39,36.6630285 113.299,36.9990285 C113.207,37.3330285 113.162,37.6880285 113.162,38.0620285 C113.162,38.4480285 113.207,38.8060285 113.299,39.1350285 C113.39,39.4640285 113.525,39.7530285 113.702,40.0010285 C113.879,40.2500285 114.105,40.4440285 114.379,40.5860285 C114.652,40.7290285 114.971,40.8000285 115.336,40.8000285 C115.701,40.8000285 116.021,40.7290285 116.295,40.5860285 C116.568,40.4440285 116.794,40.2500285 116.971,40.0010285 C117.148,39.7530285 117.282,39.4640285 117.374,39.1350285 C117.466,38.8060285 117.511,38.4480285 117.511,38.0620285 M118.88,38.0620285 C118.88,38.5800285 118.801,39.0670285 118.644,39.5230285 C118.487,39.9790285 118.256,40.3820285 117.952,40.7310285 C117.648,41.0810285 117.275,41.3580285 116.834,41.5610285 C116.393,41.7630285 115.894,41.8640285 115.336,41.8640285 C114.769,41.8640285 114.267,41.7630285 113.831,41.5610285 C113.395,41.3580285 113.025,41.0810285 112.721,40.7310285 C112.417,40.3820285 112.186,39.9790285 112.029,39.5230285 C111.872,39.0670285 111.794,38.5800285 111.794,38.0620285 C111.794,37.5460285 111.872,37.0590285 112.029,36.6030285 C112.186,36.1460285 112.417,35.7440285 112.721,35.3940285 C113.025,35.0440285 113.395,34.7680285 113.831,34.5650285 C114.267,34.3620285 114.769,34.2610285 115.336,34.2610285 C115.894,34.2610285 116.393,34.3620285 116.834,34.5650285 C117.275,34.7680285 117.648,35.0440285 117.952,35.3940285 C118.256,35.7440285 118.487,36.1460285 118.644,36.6030285 C118.801,37.0590285 118.88,37.5460285 118.88,38.0620285" id="Fill-30" fill="#FFB604"></path>
            <path d="M128.5656,35.3711285 C128.1806,35.3711285 127.8226,35.4821285 127.4936,35.7051285 C127.1636,35.9291285 126.8726,36.2031285 126.6196,36.5261285 C126.7106,36.9421285 126.7556,37.3891285 126.7556,37.8651285 L126.7556,41.7121285 L125.3876,41.7121285 L125.3876,37.9111285 C125.3876,37.5361285 125.3626,37.1931285 125.3116,36.8841285 C125.2606,36.5751285 125.1746,36.3091285 125.0536,36.0861285 C124.9316,35.8631285 124.7696,35.6881285 124.5656,35.5611285 C124.3636,35.4351285 124.1096,35.3711285 123.8066,35.3711285 C123.4006,35.3711285 123.0436,35.4771285 122.7336,35.6901285 C122.4246,35.9041285 122.1796,36.1261285 121.9966,36.3601285 L121.9966,41.7121285 L120.6286,41.7121285 L120.6286,34.4131285 L121.9356,34.4131285 L121.9356,35.4771285 C122.2096,35.0921285 122.5386,34.7931285 122.9246,34.5801285 C123.3096,34.3681285 123.7556,34.2611285 124.2626,34.2611285 C124.7796,34.2611285 125.2076,34.3881285 125.5476,34.6421285 C125.8866,34.8951285 126.1526,35.2441285 126.3456,35.6901285 C126.6496,35.2341285 127.0126,34.8821285 127.4326,34.6341285 C127.8536,34.3861285 128.3626,34.2611285 128.9616,34.2611285 C129.4176,34.2611285 129.8076,34.3571285 130.1316,34.5501285 C130.4566,34.7421285 130.7196,35.0041285 130.9226,35.3331285 C131.1256,35.6631285 131.2746,36.0461285 131.3716,36.4811285 C131.4676,36.9161285 131.5156,37.3781285 131.5156,37.8651285 L131.5156,41.7121285 L130.1476,41.7121285 L130.1476,37.9111285 C130.1476,37.5361285 130.1216,37.1931285 130.0716,36.8841285 C130.0206,36.5751285 129.9346,36.3091285 129.8126,36.0861285 C129.6906,35.8631285 129.5286,35.6881285 129.3266,35.5611285 C129.1236,35.4351285 128.8696,35.3711285 128.5656,35.3711285" id="Fill-32" fill="#FFB604"></path>
            <path d="M136.488,35.2798285 C136.194,35.2798285 135.935,35.3368285 135.712,35.4478285 C135.489,35.5588285 135.296,35.7108285 135.134,35.9038285 C134.972,36.0958285 134.845,36.3218285 134.754,36.5808285 C134.663,36.8388285 134.607,37.1098285 134.587,37.3938285 L138.024,37.3938285 C138.054,37.1098285 138.049,36.8388285 138.009,36.5808285 C137.967,36.3218285 137.887,36.0958285 137.765,35.9038285 C137.644,35.7108285 137.476,35.5588285 137.263,35.4478285 C137.05,35.3368285 136.792,35.2798285 136.488,35.2798285 M136.533,34.2608285 C137,34.2608285 137.407,34.3368285 137.758,34.4888285 C138.107,34.6418285 138.401,34.8498285 138.639,35.1128285 C138.878,35.3768285 139.055,35.6888285 139.172,36.0478285 C139.288,36.4078285 139.346,36.7958285 139.346,37.2118285 C139.346,37.6278285 139.296,38.0378285 139.195,38.4428285 L134.587,38.4428285 C134.597,38.7978285 134.648,39.1168285 134.739,39.4008285 C134.83,39.6848285 134.969,39.9298285 135.157,40.1378285 C135.344,40.3458285 135.588,40.5058285 135.887,40.6168285 C136.186,40.7288285 136.549,40.7848285 136.974,40.7848285 C137.37,40.7848285 137.742,40.7438285 138.092,40.6628285 C138.442,40.5818285 138.764,40.4808285 139.057,40.3588285 L139.24,41.3778285 C138.915,41.5298285 138.538,41.6488285 138.107,41.7358285 C137.676,41.8218285 137.233,41.8638285 136.777,41.8638285 C136.169,41.8638285 135.639,41.7648285 135.188,41.5678285 C134.736,41.3698285 134.364,41.1008285 134.07,40.7618285 C133.776,40.4228285 133.555,40.0248285 133.409,39.5688285 C133.261,39.1128285 133.188,38.6198285 133.188,38.0928285 C133.188,37.5658285 133.264,37.0698285 133.416,36.6028285 C133.569,36.1368285 133.788,35.7288285 134.077,35.3788285 C134.366,35.0288285 134.719,34.7548285 135.134,34.5578285 C135.55,34.3608285 136.016,34.2608285 136.533,34.2608285" id="Fill-34" fill="#FFB604"></path>
            <path d="M149.0324,39.6289285 C149.0324,39.9739285 148.9584,40.2819285 148.8124,40.5559285 C148.6644,40.8309285 148.4624,41.0629285 148.2034,41.2559285 C147.9454,41.4489285 147.6384,41.5979285 147.2834,41.7049285 C146.9284,41.8109285 146.5434,41.8639285 146.1284,41.8639285 C145.9454,41.8639285 145.7534,41.8539285 145.5504,41.8339285 C145.3474,41.8129285 145.1444,41.7829285 144.9424,41.7429285 C144.7394,41.7029285 144.5434,41.6539285 144.3564,41.5979285 C144.1694,41.5429285 144.0094,41.4839285 143.8774,41.4229285 L144.1054,40.3439285 C144.3684,40.4549285 144.6704,40.5559285 145.0104,40.6469285 C145.3494,40.7379285 145.7274,40.7849285 146.1434,40.7849285 C146.5784,40.7849285 146.9464,40.7069285 147.2454,40.5479285 C147.5444,40.3919285 147.6944,40.1409285 147.6944,39.7959285 C147.6944,39.6339285 147.6544,39.4899285 147.5724,39.3629285 C147.4914,39.2359285 147.3854,39.1249285 147.2534,39.0279285 C147.1214,38.9319285 146.9664,38.8429285 146.7894,38.7619285 C146.6124,38.6809285 146.4274,38.5999285 146.2344,38.5189285 C145.9704,38.4179285 145.7074,38.3029285 145.4444,38.1769285 C145.1804,38.0489285 144.9394,37.8979285 144.7214,37.7209285 C144.5034,37.5439285 144.3254,37.3379285 144.1894,37.1049285 C144.0524,36.8709285 143.9844,36.5929285 143.9844,36.2689285 C143.9844,35.9129285 144.0574,35.6099285 144.2044,35.3569285 C144.3514,35.1029285 144.5434,34.8949285 144.7824,34.7329285 C145.0204,34.5699285 145.2964,34.4519285 145.6114,34.3759285 C145.9254,34.2989285 146.2494,34.2609285 146.5844,34.2609285 C146.9694,34.2609285 147.3444,34.3039285 147.7094,34.3899285 C148.0744,34.4769285 148.4034,34.5959285 148.6984,34.7479285 L148.4704,35.7819285 C148.1754,35.6399285 147.8694,35.5299285 147.5504,35.4549285 C147.2304,35.3789285 146.9084,35.3399285 146.5844,35.3399285 C146.2294,35.3399285 145.9304,35.4019285 145.6874,35.5229285 C145.4444,35.6449285 145.3224,35.8679285 145.3224,36.1919285 C145.3224,36.3439285 145.3654,36.4729285 145.4514,36.5809285 C145.5374,36.6869285 145.6494,36.7829285 145.7854,36.8689285 C145.9224,36.9549285 146.0724,37.0329285 146.2344,37.1049285 C146.3964,37.1749285 146.5484,37.2469285 146.6904,37.3169285 C146.8224,37.3779285 147.0204,37.4649285 147.2834,37.5769285 C147.5474,37.6879285 147.8084,37.8319285 148.0674,38.0089285 C148.3254,38.1879285 148.5504,38.4069285 148.7434,38.6709285 C148.9354,38.9339285 149.0324,39.2539285 149.0324,39.6289285" id="Fill-36" fill="#FFB604"></path>
            <path d="M153.427,35.2798285 C153.133,35.2798285 152.875,35.3368285 152.651,35.4478285 C152.428,35.5588285 152.236,35.7108285 152.074,35.9038285 C151.911,36.0958285 151.785,36.3218285 151.694,36.5808285 C151.602,36.8388285 151.547,37.1098285 151.527,37.3938285 L154.963,37.3938285 C154.993,37.1098285 154.988,36.8388285 154.948,36.5808285 C154.907,36.3218285 154.826,36.0958285 154.704,35.9038285 C154.583,35.7108285 154.415,35.5588285 154.202,35.4478285 C153.99,35.3368285 153.731,35.2798285 153.427,35.2798285 M153.473,34.2608285 C153.939,34.2608285 154.347,34.3368285 154.697,34.4888285 C155.046,34.6418285 155.34,34.8498285 155.579,35.1128285 C155.817,35.3768285 155.994,35.6888285 156.111,36.0478285 C156.227,36.4078285 156.286,36.7958285 156.286,37.2118285 C156.286,37.6278285 156.235,38.0378285 156.134,38.4428285 L151.527,38.4428285 C151.536,38.7978285 151.587,39.1168285 151.678,39.4008285 C151.769,39.6848285 151.909,39.9298285 152.096,40.1378285 C152.284,40.3458285 152.527,40.5058285 152.826,40.6168285 C153.125,40.7288285 153.488,40.7848285 153.913,40.7848285 C154.309,40.7848285 154.681,40.7438285 155.031,40.6628285 C155.381,40.5818285 155.703,40.4808285 155.997,40.3588285 L156.179,41.3778285 C155.855,41.5298285 155.477,41.6488285 155.046,41.7358285 C154.615,41.8218285 154.172,41.8638285 153.716,41.8638285 C153.108,41.8638285 152.578,41.7648285 152.127,41.5678285 C151.676,41.3698285 151.303,41.1008285 151.01,40.7618285 C150.715,40.4228285 150.494,40.0248285 150.348,39.5688285 C150.2,39.1128285 150.127,38.6198285 150.127,38.0928285 C150.127,37.5658285 150.203,37.0698285 150.355,36.6028285 C150.508,36.1368285 150.728,35.7288285 151.017,35.3788285 C151.306,35.0288285 151.658,34.7548285 152.074,34.5578285 C152.489,34.3608285 152.956,34.2608285 153.473,34.2608285" id="Fill-38" fill="#FFB604"></path>
            <path d="M162.1252,35.5390285 L161.7752,35.5390285 C161.2382,35.5390285 160.7742,35.6400285 160.3842,35.8420285 C159.9942,36.0460285 159.6622,36.3740285 159.3882,36.8310285 L159.3882,41.7120285 L158.0192,41.7120285 L158.0192,34.4140285 L159.3272,34.4140285 L159.3272,35.8120285 C159.5402,35.3260285 159.8212,34.9560285 160.1712,34.7020285 C160.5212,34.4480285 160.9842,34.3220285 161.5632,34.3220285 C161.7852,34.3220285 161.9732,34.3480285 162.1252,34.3970285 L162.1252,35.5390285 Z" id="Fill-40" fill="#FFB604"></path>
            <polygon id="Fill-42" fill="#FFB604" points="167.9489 34.4136285 169.3329 34.4136285 166.7019 41.7116285 165.2729 41.7116285 162.6419 34.4136285 164.0259 34.4136285 165.9879 40.3276285"></polygon>
            <path d="M170.7009,41.7119285 L172.0699,41.7119285 L172.0699,34.4139285 L170.7009,34.4139285 L170.7009,41.7119285 Z M170.5179,32.2539285 C170.5179,32.0209285 170.5969,31.8179285 170.7539,31.6459285 C170.9109,31.4729285 171.1209,31.3869285 171.3849,31.3869285 C171.6479,31.3869285 171.8589,31.4729285 172.0159,31.6459285 C172.1729,31.8179285 172.2519,32.0209285 172.2519,32.2539285 C172.2519,32.4869285 172.1729,32.6899285 172.0159,32.8619285 C171.8589,33.0349285 171.6479,33.1209285 171.3849,33.1209285 C171.1209,33.1209285 170.9109,33.0349285 170.7539,32.8619285 C170.5969,32.6899285 170.5179,32.4869285 170.5179,32.2539285 L170.5179,32.2539285 Z" id="Fill-44" fill="#FFB604"></path>
            <path d="M177.406,34.2461285 C177.812,34.2461285 178.192,34.2821285 178.547,34.3541285 C178.902,34.4261285 179.206,34.5241285 179.459,34.6471285 L179.261,35.7051285 C178.998,35.5941285 178.717,35.5081285 178.418,35.4481285 C178.118,35.3861285 177.822,35.3561285 177.528,35.3561285 C176.707,35.3561285 176.101,35.6051285 175.711,36.1061285 C175.321,36.6071285 175.126,37.2561285 175.126,38.0551285 C175.126,38.8531285 175.321,39.5021285 175.711,40.0031285 C176.101,40.5041285 176.707,40.7541285 177.528,40.7541285 C177.822,40.7541285 178.118,40.7241285 178.418,40.6631285 C178.717,40.6011285 178.998,40.5161285 179.261,40.4041285 L179.459,41.4631285 C179.206,41.5871285 178.886,41.6841285 178.501,41.7571285 C178.116,41.8281285 177.751,41.8641285 177.406,41.8641285 C176.799,41.8641285 176.266,41.7621285 175.81,41.5591285 C175.354,41.3571285 174.973,41.0801285 174.67,40.7291285 C174.365,40.3791285 174.137,39.9731285 173.985,39.5101285 C173.833,39.0471285 173.757,38.5631285 173.757,38.0551285 C173.757,37.5481285 173.833,37.0621285 173.985,36.6001285 C174.137,36.1381285 174.365,35.7321285 174.67,35.3811285 C174.973,35.0311285 175.354,34.7541285 175.81,34.5501285 C176.266,34.3481285 176.799,34.2461285 177.406,34.2461285" id="Fill-46" fill="#FFB604"></path>
            <path d="M183.8689,35.2798285 C183.5749,35.2798285 183.3159,35.3368285 183.0929,35.4478285 C182.8699,35.5588285 182.6779,35.7108285 182.5149,35.9038285 C182.3529,36.0958285 182.2259,36.3218285 182.1359,36.5808285 C182.0439,36.8388285 181.9889,37.1098285 181.9679,37.3938285 L185.4049,37.3938285 C185.4349,37.1098285 185.4299,36.8388285 185.3899,36.5808285 C185.3489,36.3218285 185.2679,36.0958285 185.1459,35.9038285 C185.0249,35.7108285 184.8569,35.5588285 184.6439,35.4478285 C184.4319,35.3368285 184.1729,35.2798285 183.8689,35.2798285 M183.9149,34.2608285 C184.3809,34.2608285 184.7889,34.3368285 185.1389,34.4888285 C185.4879,34.6418285 185.7819,34.8498285 186.0209,35.1128285 C186.2589,35.3768285 186.4359,35.6888285 186.5529,36.0478285 C186.6689,36.4078285 186.7279,36.7958285 186.7279,37.2118285 C186.7279,37.6278285 186.6769,38.0378285 186.5759,38.4428285 L181.9679,38.4428285 C181.9779,38.7978285 182.0289,39.1168285 182.1199,39.4008285 C182.2109,39.6848285 182.3509,39.9298285 182.5379,40.1378285 C182.7259,40.3458285 182.9689,40.5058285 183.2679,40.6168285 C183.5669,40.7288285 183.9299,40.7848285 184.3549,40.7848285 C184.7509,40.7848285 185.1229,40.7438285 185.4729,40.6628285 C185.8229,40.5818285 186.1449,40.4808285 186.4389,40.3588285 L186.6209,41.3778285 C186.2969,41.5298285 185.9189,41.6488285 185.4879,41.7358285 C185.0569,41.8218285 184.6139,41.8638285 184.1579,41.8638285 C183.5499,41.8638285 183.0199,41.7648285 182.5689,41.5678285 C182.1179,41.3698285 181.7449,41.1008285 181.4509,40.7618285 C181.1569,40.4228285 180.9359,40.0248285 180.7899,39.5688285 C180.6419,39.1128285 180.5689,38.6198285 180.5689,38.0928285 C180.5689,37.5658285 180.6449,37.0698285 180.7969,36.6028285 C180.9499,36.1368285 181.1699,35.7288285 181.4589,35.3788285 C181.7479,35.0288285 182.0999,34.7548285 182.5149,34.5578285 C182.9309,34.3608285 183.3979,34.2608285 183.9149,34.2608285" id="Fill-47" fill="#FFB604"></path>
            <path d="M193.1447,39.6289285 C193.1447,39.9739285 193.0707,40.2819285 192.9247,40.5559285 C192.7767,40.8309285 192.5747,41.0629285 192.3157,41.2559285 C192.0577,41.4489285 191.7507,41.5979285 191.3957,41.7049285 C191.0407,41.8109285 190.6567,41.8639285 190.2407,41.8639285 C190.0587,41.8639285 189.8657,41.8539285 189.6627,41.8339285 C189.4597,41.8129285 189.2567,41.7829285 189.0547,41.7429285 C188.8517,41.7029285 188.6567,41.6539285 188.4687,41.5979285 C188.2817,41.5429285 188.1217,41.4839285 187.9907,41.4229285 L188.2187,40.3439285 C188.4807,40.4549285 188.7827,40.5559285 189.1237,40.6469285 C189.4627,40.7379285 189.8397,40.7849285 190.2557,40.7849285 C190.6907,40.7849285 191.0587,40.7069285 191.3577,40.5479285 C191.6567,40.3919285 191.8067,40.1409285 191.8067,39.7959285 C191.8067,39.6339285 191.7667,39.4899285 191.6857,39.3629285 C191.6037,39.2359285 191.4977,39.1249285 191.3657,39.0279285 C191.2337,38.9319285 191.0787,38.8429285 190.9017,38.7619285 C190.7247,38.6809285 190.5397,38.5999285 190.3477,38.5189285 C190.0827,38.4179285 189.8197,38.3029285 189.5567,38.1769285 C189.2927,38.0489285 189.0517,37.8979285 188.8337,37.7209285 C188.6157,37.5439285 188.4377,37.3379285 188.3017,37.1049285 C188.1647,36.8709285 188.0967,36.5929285 188.0967,36.2689285 C188.0967,35.9129285 188.1697,35.6099285 188.3167,35.3569285 C188.4637,35.1029285 188.6567,34.8949285 188.8947,34.7329285 C189.1327,34.5699285 189.4087,34.4519285 189.7237,34.3759285 C190.0377,34.2989285 190.3617,34.2609285 190.6967,34.2609285 C191.0817,34.2609285 191.4577,34.3039285 191.8217,34.3899285 C192.1867,34.4769285 192.5167,34.5959285 192.8107,34.7479285 L192.5827,35.7819285 C192.2887,35.6399285 191.9817,35.5299285 191.6627,35.4549285 C191.3427,35.3789285 191.0207,35.3399285 190.6967,35.3399285 C190.3417,35.3399285 190.0427,35.4019285 189.7997,35.5229285 C189.5567,35.6449285 189.4347,35.8679285 189.4347,36.1919285 C189.4347,36.3439285 189.4777,36.4729285 189.5637,36.5809285 C189.6497,36.6869285 189.7617,36.7829285 189.8987,36.8689285 C190.0357,36.9549285 190.1847,37.0329285 190.3477,37.1049285 C190.5087,37.1749285 190.6617,37.2469285 190.8037,37.3169285 C190.9347,37.3779285 191.1327,37.4649285 191.3957,37.5769285 C191.6597,37.6879285 191.9207,37.8319285 192.1797,38.0089285 C192.4377,38.1879285 192.6637,38.4069285 192.8557,38.6709285 C193.0477,38.9339285 193.1447,39.2539285 193.1447,39.6289285" id="Fill-48" fill="#FFB604"></path>
        </g>
    </g>
</svg>